<?xml version="1.0" encoding="UTF-8"?>
<svg id="Layer_1" xmlns="http://www.w3.org/2000/svg" version="1.1" viewBox="0 0 500 94.04">
  <!-- Generator: Adobe Illustrator 29.0.1, SVG Export Plug-In . SVG Version: 2.1.0 Build 192)  -->
  <defs>
    <style>
      .st0 {
        fill: #f27623;
        stroke: #f17624;
      }

      .st0, .st1 {
        stroke-miterlimit: 10;
        stroke-width: 2.74px;
      }

      .st1 {
        fill: #66bc46;
        stroke: #67bd47;
      }
    </style>
  </defs>
  <path class="st1" d="M65.78,47.58c-.84,1.96-1.26,4.03-1.26,6.13s.41,4.01,1.23,5.88c.84,1.89,2.01,3.58,3.51,5.04,1.51,1.46,3.31,2.65,5.31,3.54,2.99,1.34,5.99,1.73,9.23.94,1.12-.27,2.23-.64,3.3-1.14,1.09-.48,2.1-1.05,3.05-1.71.93-.64,1.71-1.37,2.32-2.14.12-.14.32-.19.5-.12s.28.21.28.41h0c0,2.31-1.18,4.49-3.19,5.64-.89.51-1.82.95-2.78,1.31-2.1.8-4.31,1.21-6.57,1.21-2.51,0-4.99-.5-7.32-1.48-2.35-.98-4.45-2.39-6.23-4.15-1.8-1.76-3.24-3.81-4.28-6.11s-1.55-4.76-1.55-7.3.52-5.08,1.53-7.39c1.02-2.3,2.44-4.36,4.24-6.15,1.8-1.76,3.9-3.15,6.23-4.13,4.36-1.83,9.37-2.03,14.06-.2,1.43.57,2.76,1.28,3.97,2.14,1.19.84,1.89,2.24,1.89,3.76v1.16c0,.2-.11.37-.28.43-.18.05-.37,0-.5-.14-1.34-1.64-3.12-2.99-5.29-4.03-4.33-2.03-8.8-1.98-12.72-.25-1.94.86-3.69,2.07-5.17,3.58-1.48,1.53-2.65,3.3-3.49,5.27Z"/>
  <path class="st1" d="M137.16,46.14c-1-2.3-2.4-4.36-4.19-6.15-1.8-1.76-3.88-3.15-6.22-4.13-4.69-1.96-10.08-1.96-14.77,0-2.33.98-4.42,2.37-6.22,4.13-1.78,1.78-3.19,3.83-4.19,6.15-1,2.32-1.5,4.77-1.5,7.34s.52,5.02,1.53,7.34c1,2.3,2.42,4.36,4.2,6.13s3.87,3.17,6.2,4.15c2.32.98,4.79,1.48,7.36,1.48s5.02-.5,7.37-1.48c2.33-.98,4.44-2.39,6.22-4.15s3.19-3.83,4.19-6.13c1-2.32,1.5-4.79,1.5-7.34s-.5-5.02-1.5-7.34ZM125.55,38.67c1.94.84,3.69,2.01,5.18,3.49,1.5,1.5,2.67,3.24,3.49,5.2.82,1.94,1.25,3.99,1.25,6.11s-.43,4.17-1.26,6.11c-.86,1.94-2.03,3.69-3.51,5.17s-3.21,2.65-5.17,3.49c-3.88,1.67-8.44,1.67-12.31,0-1.96-.84-3.69-2.01-5.17-3.49-1.48-1.48-2.65-3.21-3.51-5.15-.84-1.92-1.26-3.99-1.26-6.13s.43-4.2,1.26-6.15c.86-1.92,2.03-3.67,3.51-5.17,1.48-1.48,3.21-2.65,5.15-3.49,3.9-1.64,8.44-1.64,12.35,0Z"/>
  <path class="st1" d="M149.98,47.58c-.84,1.96-1.26,4.03-1.26,6.13s.43,4.01,1.25,5.88c.82,1.89,2,3.58,3.49,5.04,1.51,1.46,3.31,2.65,5.31,3.54,3.01,1.34,5.99,1.73,9.25.94,1.1-.27,2.21-.64,3.3-1.14,1.07-.48,2.1-1.05,3.03-1.71.93-.64,1.71-1.37,2.32-2.14.12-.14.32-.2.5-.12.18.05.3.21.3.41v1.07c0,1.57-.8,3.03-2.12,3.9-1.21.8-2.51,1.46-3.87,1.98-2.08.8-4.31,1.21-6.56,1.21-2.53,0-4.99-.5-7.34-1.48-2.33-.98-4.44-2.39-6.23-4.15s-3.24-3.81-4.26-6.11c-1.03-2.3-1.57-4.76-1.57-7.3s.52-5.08,1.53-7.39c1.02-2.3,2.44-4.36,4.24-6.15,1.8-1.76,3.9-3.15,6.23-4.13,4.36-1.83,9.39-2.03,14.06-.2,1.44.57,2.78,1.28,3.97,2.14,1.19.84,1.91,2.24,1.91,3.76v1.16c0,.2-.12.37-.3.43-.18.05-.37,0-.5-.14-1.34-1.64-3.1-2.99-5.29-4.03-4.33-2.03-8.8-1.98-12.72-.25-1.94.86-3.67,2.07-5.15,3.58-1.48,1.53-2.67,3.3-3.51,5.27Z"/>
  <path class="st1" d="M221.36,46.14c-1-2.3-2.4-4.36-4.19-6.15-1.78-1.76-3.88-3.15-6.22-4.13-4.69-1.96-10.06-1.96-14.75,0-2.35.98-4.44,2.37-6.22,4.13-1.78,1.78-3.19,3.83-4.2,6.15-1,2.32-1.5,4.77-1.5,7.34s.52,5.02,1.53,7.34c1.02,2.3,2.42,4.36,4.22,6.13,1.76,1.76,3.85,3.17,6.18,4.15,2.32.98,4.79,1.48,7.36,1.48s5.04-.5,7.38-1.48c2.35-.98,4.44-2.39,6.22-4.15s3.19-3.83,4.19-6.13c1-2.32,1.51-4.79,1.51-7.34s-.52-5.02-1.51-7.34ZM209.74,38.67c1.94.84,3.69,2.01,5.18,3.49,1.5,1.5,2.67,3.24,3.49,5.2.82,1.94,1.25,3.99,1.25,6.11s-.43,4.17-1.26,6.11c-.84,1.94-2.01,3.69-3.49,5.17-1.48,1.48-3.22,2.65-5.17,3.49-3.88,1.67-8.44,1.67-12.33,0-1.94-.84-3.69-2.01-5.17-3.49s-2.65-3.21-3.49-5.15c-.84-1.92-1.26-3.99-1.26-6.13s.43-4.2,1.26-6.15c.84-1.92,2.01-3.67,3.49-5.17,1.48-1.48,3.22-2.65,5.17-3.49,3.88-1.64,8.43-1.64,12.33,0Z"/>
  <path class="st1" d="M234.19,47.58c-.86,1.96-1.28,4.03-1.28,6.13s.43,4.01,1.25,5.88c.82,1.89,2,3.58,3.49,5.04,1.53,1.46,3.31,2.65,5.33,3.54,2.99,1.34,5.97,1.73,9.23.94,1.1-.27,2.21-.64,3.3-1.14,1.09-.48,2.1-1.05,3.03-1.71.93-.64,1.71-1.35,2.33-2.14.11-.14.3-.2.48-.12.18.05.3.21.3.41v1.07c0,1.57-.78,3.03-2.1,3.9-1.23.8-2.53,1.46-3.87,1.98-2.1.8-4.31,1.21-6.57,1.21-2.53,0-4.99-.5-7.32-1.48-2.35-.98-4.45-2.39-6.25-4.15-1.8-1.76-3.22-3.81-4.26-6.11-1.03-2.3-1.55-4.76-1.55-7.3s.52-5.08,1.53-7.39c1-2.3,2.44-4.36,4.24-6.15,1.8-1.76,3.88-3.15,6.23-4.13,4.36-1.83,9.37-2.03,14.04-.2,1.44.57,2.78,1.28,3.97,2.14,1.19.84,1.91,2.24,1.91,3.76v1.16c0,.2-.12.37-.29.43-.18.05-.39.02-.5-.14-1.34-1.64-3.12-2.99-5.29-4.03-4.33-2.03-8.82-1.98-12.72-.25-1.94.86-3.69,2.07-5.17,3.58-1.48,1.53-2.65,3.3-3.49,5.27Z"/>
  <path class="st1" d="M291.46,61.56c0,1.55-.32,3.01-.94,4.35-.64,1.34-1.53,2.51-2.64,3.51-1.12,1-2.4,1.78-3.81,2.33-1.41.53-2.9.82-4.42.82-2.57,0-4.86-.75-6.82-2.21-1.96-1.46-3.4-3.44-4.29-5.9-.09-.21.02-.46.23-.55l2.03-.93c.11-.04.23-.04.34,0,.11.05.2.14.25.25.77,1.94,1.87,3.49,3.28,4.61,1.41,1.1,3.1,1.66,5.08,1.66,1.12,0,2.21-.2,3.24-.62,1.02-.39,1.92-.98,2.73-1.73.78-.75,1.43-1.64,1.87-2.64.46-1,.68-2.05.68-3.14,0-.84-.16-1.59-.52-2.23-.36-.68-.84-1.26-1.41-1.75-.61-.52-1.25-.98-1.92-1.35-.68-.39-1.53-.84-2.55-1.32l-.68-.34-6.56-3.47c-2.67-1.64-4.01-3.95-4.01-6.89s.93-5.15,2.74-6.95c1.82-1.8,4.17-2.71,7-2.71,1.91,0,3.72.48,5.38,1.43,1.67.96,2.99,2.26,3.88,3.9.11.2.05.43-.11.57l-1.64,1.35c-.09.07-.23.11-.36.09s-.23-.09-.3-.2c-.82-1.32-1.82-2.35-2.96-3.05s-2.49-1.03-4.04-1.03c-1.82,0-3.3.61-4.54,1.89-1.25,1.26-1.85,2.78-1.85,4.6,0,.8.16,1.51.48,2.14.32.64.77,1.19,1.32,1.64.55.48,1.16.89,1.78,1.23.64.36,1.44.77,2.44,1.25l.28.14,6.95,3.62c1.5.93,2.62,2.01,3.31,3.24.71,1.23,1.07,2.71,1.07,4.38Z"/>
  <path class="st1" d="M320.32,35.79v2.17c0,.23-.2.45-.45.45h-5.2c-2.07,0-3.76,1.67-3.76,3.74v29.98c0,.25-.2.45-.45.45h-2.3c-.25,0-.45-.2-.45-.45v-29.98c0-2.07-1.69-3.74-3.76-3.74h-5.2c-.25,0-.45-.21-.45-.45v-2.17c0-.25.2-.45.45-.45h21.11c.25,0,.45.2.45.45Z"/>
  <path class="st1" d="M352.75,35.3v22.66c0,2.39-.14,4.35-.43,5.81-.28,1.51-1,2.99-2.14,4.4-1.23,1.41-2.78,2.49-4.58,3.26-1.8.75-3.71,1.14-5.65,1.14s-3.85-.39-5.65-1.14c-1.8-.77-3.33-1.85-4.56-3.26-1.16-1.41-1.87-2.89-2.16-4.4-.28-1.46-.43-3.42-.43-5.81v-22.66c0-.25.21-.45.45-.45h2.32c.25,0,.45.2.45.45v21.98c0,2.17.11,3.99.32,5.38.2,1.32.69,2.49,1.48,3.49.77,1.03,1.91,1.85,3.38,2.44,2.96,1.21,5.86,1.21,8.82,0,1.46-.59,2.6-1.41,3.38-2.44.78-1,1.28-2.17,1.48-3.49.2-1.41.3-3.21.3-5.38v-21.98c0-.25.2-.45.45-.45h2.32c.25,0,.45.2.45.45Z"/>
  <path class="st1" d="M384.88,46.37c-1-2.4-2.48-4.52-4.42-6.32-1.94-1.82-4.01-3.06-6.18-3.72-2.14-.66-4.7-.98-7.62-.98h-2.35c-2.57,0-4.65,2.08-4.65,4.63v27.97c0,2.55,2.08,4.63,4.65,4.63h2.35c2.96,0,5.58-.36,7.75-1.05,2.21-.71,4.31-2.03,6.25-3.88,1.87-1.78,3.3-3.87,4.28-6.22.96-2.33,1.46-4.83,1.46-7.41s-.52-5.26-1.51-7.64ZM383.19,54.01c0,2.07-.41,4.12-1.23,6.06-.8,1.94-1.98,3.69-3.46,5.18-1.59,1.55-3.35,2.67-5.24,3.3-1.91.64-4.13.96-6.64.96-2.07,0-3.76-1.67-3.76-3.74v-23.62c0-2.07,1.69-3.74,3.76-3.74,2.39,0,4.52.28,6.34.84,1.82.55,3.53,1.57,5.11,2.99,1.64,1.5,2.92,3.28,3.79,5.29.87,2.03,1.32,4.2,1.32,6.48Z"/>
  <path class="st0" d="M396.46,33.47v1.43l-2.22,1.67c-.41.3-.98.01-.98-.49v-2.6c0-.24.2-.45.45-.45h2.32c.25,0,.45.2.45.45Z"/>
  <path class="st1" d="M393.79,43.2l1.91-1.42c.31-.23.75,0,.75.38v29.97c0,.25-.2.45-.45.45h-2.32c-.23,0-.45-.2-.45-.45v-27.84c0-.43.2-.83.54-1.08Z"/>
  <path class="st1" d="M440.38,46.14c-1-2.3-2.4-4.36-4.19-6.15-1.78-1.76-3.88-3.15-6.22-4.13-4.69-1.96-10.08-1.96-14.75,0-2.35.98-4.44,2.37-6.22,4.13-1.78,1.78-3.19,3.85-4.2,6.15-1,2.32-1.5,4.77-1.5,7.34s.52,5.02,1.53,7.34c1.02,2.3,2.42,4.36,4.2,6.13s3.87,3.17,6.2,4.15c2.32.98,4.79,1.48,7.36,1.48s5.02-.5,7.38-1.48,4.44-2.39,6.22-4.15,3.19-3.83,4.19-6.13c1-2.32,1.51-4.79,1.51-7.34s-.52-5.02-1.51-7.34ZM438.69,53.48c0,2.1-.43,4.17-1.26,6.11-.84,1.94-2.01,3.69-3.49,5.17-1.48,1.48-3.22,2.65-5.17,3.49-3.88,1.67-8.44,1.67-12.33,0-1.94-.84-3.69-2.01-5.17-3.49s-2.65-3.21-3.49-5.15c-.84-1.92-1.26-3.99-1.26-6.13s.43-4.2,1.26-6.15c.84-1.92,2.01-3.67,3.49-5.17,1.48-1.48,3.22-2.65,5.17-3.49,3.88-1.64,8.44-1.64,12.33,0,1.94.84,3.69,2.01,5.18,3.49,1.5,1.5,2.67,3.24,3.49,5.2.82,1.94,1.25,3.99,1.25,6.11Z"/>
</svg>